<svg width="16" height="16" viewBox="0 0 155 155" fill="none" xmlns="http://www.w3.org/2000/svg">
  <path fill-rule="evenodd" clip-rule="evenodd" d="M88.8042 1.09473C130.955 7.40669 160.008 46.6929 153.696 88.843C147.384 130.993 108.098 160.046 65.947 153.734C23.7962 147.422 -5.25701 108.135 1.05484 65.9853C7.3667 23.8353 46.6534 -5.21723 88.8042 1.09473ZM77.3745 23.0451C85.3029 23.0451 91.7302 19.0668 91.7302 14.1592C91.7302 9.25169 85.3029 5.27334 77.3745 5.27334C69.4462 5.27334 63.0189 9.25169 63.0189 14.1592C63.0189 19.0668 69.4462 23.0451 77.3745 23.0451ZM140.644 91.7839C135.736 91.7839 131.757 85.3572 131.757 77.4283C131.757 69.4995 135.736 63.0727 140.644 63.0727C145.551 63.0727 149.53 69.4995 149.53 77.4283C149.53 85.3572 145.551 91.7839 140.644 91.7839ZM77.3745 131.81C69.4457 131.81 63.0189 135.79 63.0189 140.697C63.0189 145.606 69.4457 149.585 77.3745 149.585C85.3034 149.585 91.7302 145.605 91.7302 140.697C91.7302 135.788 85.3021 131.81 77.3745 131.81ZM14.1055 63.0727C19.0133 63.0727 22.9927 69.4995 22.9927 77.4283C22.9927 85.3572 19.0146 91.7839 14.1055 91.7839C9.19771 91.7839 5.2196 85.3572 5.2196 77.4283C5.2196 69.4995 9.19771 63.0727 14.1055 63.0727ZM115.83 38.9732C121.435 44.5799 128.793 46.3114 132.264 42.8405C135.734 39.3709 134.003 32.0132 128.397 26.4065C122.791 20.7999 115.434 19.0683 111.963 22.5392C108.493 26.0088 110.225 33.3666 115.83 38.9732ZM111.962 132.317C108.492 128.846 110.223 121.489 115.83 115.883C121.436 110.278 128.794 108.546 132.264 112.016C135.735 115.487 134.003 122.845 128.396 128.45C122.791 134.057 115.432 135.788 111.962 132.317ZM38.9196 115.883C33.3143 110.277 25.9565 108.545 22.4856 112.016C19.0147 115.487 20.7463 122.845 26.3529 128.45C31.9583 134.057 39.316 135.788 42.7869 132.317C46.2565 128.848 44.5263 121.49 38.9196 115.883ZM42.7869 22.5392C46.2578 26.0101 44.5263 33.3679 38.9196 38.9732C33.313 44.5786 25.9552 46.3101 22.4856 42.8405C19.0147 39.3696 20.7463 32.0119 26.3529 26.4065C31.9583 20.8012 39.3173 19.0696 42.7869 22.5392ZM92.8687 51.7564C92.8687 58.552 85.9318 64.061 77.3748 64.061C68.8177 64.061 61.8809 58.552 61.8809 51.7564C61.8809 44.9607 68.8177 39.4518 77.3748 39.4518C85.9318 39.4518 92.8687 44.9607 92.8687 51.7564ZM110.31 100.485C104.259 106.536 95.459 107.545 90.653 102.74C85.8482 97.9356 86.8574 89.1344 92.9087 83.0832C98.96 77.0319 107.76 76.0227 112.566 80.8275C117.371 85.6322 116.361 94.4334 110.31 100.485ZM64.0961 102.74C59.29 107.545 50.4902 106.536 44.4389 100.485C38.3877 94.4334 37.3785 85.6322 42.1832 80.8275C46.9893 76.0227 55.7891 77.0319 61.8404 83.0832C67.8917 89.1344 68.9008 97.9356 64.0961 102.74Z" fill="black"/>
</svg>